<mxfile host="app.diagrams.net" modified="2021-08-13T05:27:01.321Z" agent="5.0 (Windows NT 10.0; Win64; x64) AppleWebKit/537.36 (KHTML, like Gecko) Chrome/92.0.4515.131 Safari/537.36" etag="dBNW-8IrUHaaFSXfXA1q" version="14.9.6" type="github">
  <diagram id="R2lEEEUBdFMjLlhIrx00" name="Page-1">
    <mxGraphModel dx="2297" dy="750" grid="1" gridSize="10" guides="1" tooltips="1" connect="1" arrows="1" fold="1" page="1" pageScale="1" pageWidth="850" pageHeight="1100" math="0" shadow="0" extFonts="Permanent Marker^https://fonts.googleapis.com/css?family=Permanent+Marker">
      <root>
        <mxCell id="0" />
        <mxCell id="1" parent="0" />
        <mxCell id="hfRih5qPXWcXqU3gfhSW-1" value="Customer" style="rounded=0;whiteSpace=wrap;html=1;" vertex="1" parent="1">
          <mxGeometry x="100" y="192" width="120" height="60" as="geometry" />
        </mxCell>
        <mxCell id="hfRih5qPXWcXqU3gfhSW-2" value="Trainer" style="rounded=0;whiteSpace=wrap;html=1;" vertex="1" parent="1">
          <mxGeometry x="560" y="540" width="120" height="60" as="geometry" />
        </mxCell>
        <mxCell id="hfRih5qPXWcXqU3gfhSW-3" value="Appointment" style="rounded=0;whiteSpace=wrap;html=1;" vertex="1" parent="1">
          <mxGeometry x="590" y="230" width="120" height="60" as="geometry" />
        </mxCell>
        <mxCell id="hfRih5qPXWcXqU3gfhSW-4" value="Packages" style="rounded=0;whiteSpace=wrap;html=1;" vertex="1" parent="1">
          <mxGeometry x="60" y="610" width="120" height="60" as="geometry" />
        </mxCell>
        <mxCell id="hfRih5qPXWcXqU3gfhSW-5" value="Physio" style="rounded=0;whiteSpace=wrap;html=1;" vertex="1" parent="1">
          <mxGeometry x="360" y="600" width="120" height="60" as="geometry" />
        </mxCell>
        <mxCell id="hfRih5qPXWcXqU3gfhSW-6" value="Customer_phone" style="ellipse;whiteSpace=wrap;html=1;" vertex="1" parent="1">
          <mxGeometry x="150" y="40" width="100" height="60" as="geometry" />
        </mxCell>
        <mxCell id="hfRih5qPXWcXqU3gfhSW-7" value="Customer_email" style="ellipse;whiteSpace=wrap;html=1;" vertex="1" parent="1">
          <mxGeometry x="40" y="40" width="100" height="60" as="geometry" />
        </mxCell>
        <mxCell id="hfRih5qPXWcXqU3gfhSW-8" value="Customer_address" style="ellipse;whiteSpace=wrap;html=1;" vertex="1" parent="1">
          <mxGeometry x="-50" y="81" width="100" height="60" as="geometry" />
        </mxCell>
        <mxCell id="hfRih5qPXWcXqU3gfhSW-9" value="Customer_city" style="ellipse;whiteSpace=wrap;html=1;" vertex="1" parent="1">
          <mxGeometry x="-70" y="160" width="100" height="60" as="geometry" />
        </mxCell>
        <mxCell id="hfRih5qPXWcXqU3gfhSW-10" value="Customer_state" style="ellipse;whiteSpace=wrap;html=1;" vertex="1" parent="1">
          <mxGeometry x="-60" y="230" width="100" height="60" as="geometry" />
        </mxCell>
        <mxCell id="hfRih5qPXWcXqU3gfhSW-11" value="Customer_name" style="ellipse;whiteSpace=wrap;html=1;" vertex="1" parent="1">
          <mxGeometry x="260" y="70" width="100" height="60" as="geometry" />
        </mxCell>
        <mxCell id="hfRih5qPXWcXqU3gfhSW-12" value="Customer_pincode" style="ellipse;whiteSpace=wrap;html=1;" vertex="1" parent="1">
          <mxGeometry x="-50" y="310" width="100" height="60" as="geometry" />
        </mxCell>
        <mxCell id="hfRih5qPXWcXqU3gfhSW-13" value="Appointment_name" style="ellipse;whiteSpace=wrap;html=1;" vertex="1" parent="1">
          <mxGeometry x="720" y="100" width="100" height="60" as="geometry" />
        </mxCell>
        <mxCell id="hfRih5qPXWcXqU3gfhSW-14" value="Appointment_place" style="ellipse;whiteSpace=wrap;html=1;" vertex="1" parent="1">
          <mxGeometry x="590" y="100" width="100" height="60" as="geometry" />
        </mxCell>
        <mxCell id="hfRih5qPXWcXqU3gfhSW-15" value="" style="ellipse;whiteSpace=wrap;html=1;" vertex="1" parent="1">
          <mxGeometry x="480" y="141" width="100" height="60" as="geometry" />
        </mxCell>
        <mxCell id="hfRih5qPXWcXqU3gfhSW-16" value="Appointment_id" style="ellipse;whiteSpace=wrap;html=1;" vertex="1" parent="1">
          <mxGeometry x="760" y="190" width="100" height="60" as="geometry" />
        </mxCell>
        <mxCell id="hfRih5qPXWcXqU3gfhSW-17" value="Customer_id" style="ellipse;whiteSpace=wrap;html=1;" vertex="1" parent="1">
          <mxGeometry x="280" y="132" width="100" height="60" as="geometry" />
        </mxCell>
        <mxCell id="hfRih5qPXWcXqU3gfhSW-18" value="Package_amount" style="ellipse;whiteSpace=wrap;html=1;" vertex="1" parent="1">
          <mxGeometry x="-90" y="630" width="100" height="60" as="geometry" />
        </mxCell>
        <mxCell id="hfRih5qPXWcXqU3gfhSW-20" value="Physio_customer" style="ellipse;whiteSpace=wrap;html=1;" vertex="1" parent="1">
          <mxGeometry x="220" y="560" width="100" height="60" as="geometry" />
        </mxCell>
        <mxCell id="hfRih5qPXWcXqU3gfhSW-21" value="Physio_fees" style="ellipse;whiteSpace=wrap;html=1;" vertex="1" parent="1">
          <mxGeometry x="230" y="650" width="100" height="60" as="geometry" />
        </mxCell>
        <mxCell id="hfRih5qPXWcXqU3gfhSW-22" value="Physio_name" style="ellipse;whiteSpace=wrap;html=1;" vertex="1" parent="1">
          <mxGeometry x="330" y="720" width="100" height="60" as="geometry" />
        </mxCell>
        <mxCell id="hfRih5qPXWcXqU3gfhSW-23" value="Physio_id" style="ellipse;whiteSpace=wrap;html=1;" vertex="1" parent="1">
          <mxGeometry x="450" y="710" width="100" height="60" as="geometry" />
        </mxCell>
        <mxCell id="hfRih5qPXWcXqU3gfhSW-24" value="Trainer_customer" style="ellipse;whiteSpace=wrap;html=1;" vertex="1" parent="1">
          <mxGeometry x="720" y="410" width="100" height="60" as="geometry" />
        </mxCell>
        <mxCell id="hfRih5qPXWcXqU3gfhSW-25" value="Trainer_fees" style="ellipse;whiteSpace=wrap;html=1;" vertex="1" parent="1">
          <mxGeometry x="750" y="490" width="100" height="60" as="geometry" />
        </mxCell>
        <mxCell id="hfRih5qPXWcXqU3gfhSW-26" value="Trainer_type" style="ellipse;whiteSpace=wrap;html=1;" vertex="1" parent="1">
          <mxGeometry x="770" y="580" width="100" height="60" as="geometry" />
        </mxCell>
        <mxCell id="hfRih5qPXWcXqU3gfhSW-27" value="Trainer_name" style="ellipse;whiteSpace=wrap;html=1;" vertex="1" parent="1">
          <mxGeometry x="720" y="650" width="100" height="60" as="geometry" />
        </mxCell>
        <mxCell id="hfRih5qPXWcXqU3gfhSW-28" value="Trainer_id" style="ellipse;whiteSpace=wrap;html=1;" vertex="1" parent="1">
          <mxGeometry x="610" y="650" width="100" height="60" as="geometry" />
        </mxCell>
        <mxCell id="hfRih5qPXWcXqU3gfhSW-29" value="Package_name" style="ellipse;whiteSpace=wrap;html=1;" vertex="1" parent="1">
          <mxGeometry x="-20" y="720" width="100" height="60" as="geometry" />
        </mxCell>
        <mxCell id="hfRih5qPXWcXqU3gfhSW-30" value="Package_duration" style="ellipse;whiteSpace=wrap;html=1;" vertex="1" parent="1">
          <mxGeometry x="-100" y="550" width="100" height="60" as="geometry" />
        </mxCell>
        <mxCell id="hfRih5qPXWcXqU3gfhSW-32" value="Package_id" style="ellipse;whiteSpace=wrap;html=1;" vertex="1" parent="1">
          <mxGeometry x="100" y="720" width="100" height="60" as="geometry" />
        </mxCell>
        <mxCell id="hfRih5qPXWcXqU3gfhSW-33" value="" style="endArrow=none;html=1;" edge="1" parent="1">
          <mxGeometry width="50" height="50" relative="1" as="geometry">
            <mxPoint x="295" y="170.17" as="sourcePoint" />
            <mxPoint x="365" y="170.17" as="targetPoint" />
          </mxGeometry>
        </mxCell>
        <mxCell id="hfRih5qPXWcXqU3gfhSW-35" value="Books an appointment" style="rhombus;whiteSpace=wrap;html=1;" vertex="1" parent="1">
          <mxGeometry x="345" y="210" width="80" height="80" as="geometry" />
        </mxCell>
        <mxCell id="hfRih5qPXWcXqU3gfhSW-36" value="" style="endArrow=none;html=1;exitX=1;exitY=0.5;exitDx=0;exitDy=0;entryX=0;entryY=0.5;entryDx=0;entryDy=0;" edge="1" parent="1" source="hfRih5qPXWcXqU3gfhSW-1" target="hfRih5qPXWcXqU3gfhSW-35">
          <mxGeometry width="50" height="50" relative="1" as="geometry">
            <mxPoint x="260" y="251" as="sourcePoint" />
            <mxPoint x="340" y="251" as="targetPoint" />
          </mxGeometry>
        </mxCell>
        <mxCell id="hfRih5qPXWcXqU3gfhSW-37" value="" style="endArrow=none;html=1;entryX=0;entryY=0.5;entryDx=0;entryDy=0;exitX=1;exitY=0.5;exitDx=0;exitDy=0;" edge="1" parent="1" source="hfRih5qPXWcXqU3gfhSW-35" target="hfRih5qPXWcXqU3gfhSW-3">
          <mxGeometry width="50" height="50" relative="1" as="geometry">
            <mxPoint x="475" y="280" as="sourcePoint" />
            <mxPoint x="525" y="230" as="targetPoint" />
          </mxGeometry>
        </mxCell>
      </root>
    </mxGraphModel>
  </diagram>
</mxfile>
